<svg width="35" height="23" viewBox="0 0 35 23" fill="none" xmlns="http://www.w3.org/2000/svg">
<path d="M7.82014 8.55814C8.66646 8.55814 9.49377 8.30717 10.1975 7.83699C10.9012 7.3668 11.4496 6.6985 11.7735 5.9166C12.0974 5.1347 12.1821 4.27432 12.017 3.44426C11.8519 2.61421 11.4443 1.85175 10.8459 1.25331C10.2475 0.654867 9.485 0.247328 8.65495 0.0822275C7.82489 -0.0828875 6.96452 0.00185245 6.18262 0.325721C5.40071 0.649604 4.73242 1.19805 4.26223 1.90175C3.79204 2.60544 3.54107 3.43275 3.54107 4.27907C3.54247 5.41352 3.99374 6.5011 4.79593 7.30329C5.59811 8.10547 6.68569 8.55674 7.82014 8.55814ZM26.3628 8.55814C27.209 8.55814 28.0365 8.30717 28.7401 7.83699C29.4439 7.3668 29.9923 6.6985 30.3161 5.9166C30.64 5.1347 30.7247 4.27432 30.5597 3.44426C30.3945 2.61421 29.987 1.85175 29.3885 1.25331C28.7902 0.654867 28.0276 0.247328 27.1976 0.0822275C26.3675 -0.0828875 25.5071 0.00185245 24.7252 0.325721C23.9434 0.649604 23.275 1.19805 22.8049 1.90175C22.3346 2.60544 22.0837 3.43275 22.0837 4.27907C22.0851 5.41352 22.5364 6.5011 23.3386 7.30329C24.1408 8.10547 25.2284 8.55674 26.3628 8.55814ZM33.8965 14.2778C32.5308 12.9138 30.8177 11.9494 28.9431 11.4894L26.3628 15.7339L23.7824 11.4894C21.9077 11.9494 20.1948 12.9138 18.8291 14.2778L18.5426 14.5648V23H34.1828V14.5648L33.8965 14.2778ZM10.4004 11.49L7.82014 15.7344L5.23972 11.49C3.36509 11.95 1.65212 12.9144 0.286412 14.2784L0 14.5648V23H15.6401V14.5648L15.3539 14.2784C13.9881 12.9144 12.2751 11.95 10.4004 11.49Z" fill="white" fill-opacity="0.87"/>
</svg>
